# xmcd CD database file
#
# Track frame offsets:
#	150
#	11606
#	25479
#	40042
#	54647
#	70603
#	83870
#	94281
#	105524
#	119105
#	132729
#	149138
#	160085
#
# Disc length: 2340 seconds
#
# Revision: 0
# Processed by: cddbd v1.5.1PL0 Copyright (c) Steve Scherf et al.
# Submitted via: CDex 1.50
#
DISCID=bb09220d
DTITLE=Lonnie Spiker - Unapologetically  Honky Tonk
DYEAR=2005
DGENRE=Country
TTITLE0=Let's Face The Music
TTITLE1=A Little Lonlier Than This
TTITLE2=The Devil In Me
TTITLE3=I've Got Some Hurtin' To Do
TTITLE4=Fallin'
TTITLE5=Another Place Another Time
TTITLE6=It's Me
TTITLE7=Close Up The Honky Tonks
TTITLE8=Soul Of A Writer
TTITLE9=It's Not Like You
TTITLE10=Beer Drinking Women
TTITLE11=I Came In Here Laughing
TTITLE12=What It'd Do To My Heart
EXTD=YEAR: 2005
EXTT0=
EXTT1=
EXTT2=
EXTT3=
EXTT4=
EXTT5=
EXTT6=
EXTT7=
EXTT8=
EXTT9=
EXTT10=
EXTT11=
EXTT12=
PLAYORDER=
